<mxfile host="app.diagrams.net" modified="2020-03-29T11:31:04.372Z" agent="Mozilla/5.0 (Windows NT 10.0; WOW64) AppleWebKit/537.36 (KHTML, like Gecko) Chrome/70.0.3538.25 Safari/537.36 Core/1.70.3706.400 SLBrowser/10.0.3974.400" etag="c9vBlDjTg6EBw_lC4Pd5" version="12.9.3" type="github">
  <diagram id="LDKIGx-cGmrNqBhrrxe3" name="第 1 页">
    <mxGraphModel dx="925" dy="508" grid="1" gridSize="10" guides="1" tooltips="1" connect="1" arrows="1" fold="1" page="1" pageScale="1" pageWidth="827" pageHeight="1169" math="0" shadow="0">
      <root>
        <mxCell id="0" />
        <mxCell id="1" parent="0" />
        <mxCell id="PIDMLQd2WYV3pIvn55jp-1" value="" style="rounded=1;whiteSpace=wrap;html=1;" vertex="1" parent="1">
          <mxGeometry x="50" y="50" width="120" height="60" as="geometry" />
        </mxCell>
      </root>
    </mxGraphModel>
  </diagram>
</mxfile>
